<svg width="293" height="36" viewBox="0 0 293 36" fill="none" xmlns="http://www.w3.org/2000/svg">
<path d="M0 36V0.359985H14.7717C18.6096 0.359985 21.368 1.19952 23.0471 2.89856C24.7261 4.59761 25.5656 6.91631 25.5656 9.85466C25.5656 11.2339 25.3857 12.4332 25.006 13.4726C24.6462 14.512 24.0865 15.3716 23.3669 16.0712C22.6473 16.7508 21.7478 17.2305 20.6484 17.4904C21.488 17.7103 22.2675 18.0501 23.0071 18.4898C23.7467 18.9296 24.3863 19.5292 24.926 20.2688C25.4657 21.0084 25.8855 21.8679 26.2053 22.8674C26.5051 23.8668 26.665 24.9862 26.665 26.2255C26.665 28.5642 26.2453 30.4431 25.4257 31.8823C24.5862 33.3215 23.3469 34.3809 21.6878 35.0205C20.0288 35.6802 17.9699 36 15.4913 36H0ZM9.31478 14.3721H14.6918C15.3914 14.3721 15.9111 14.0923 16.2509 13.5526C16.5907 13.0129 16.7506 12.3333 16.7506 11.5337C16.7506 10.4543 16.5307 9.69475 16.111 9.29498C15.6712 8.8952 15.2115 8.69531 14.6918 8.69531H9.31478V14.3521V14.3721ZM9.31478 27.6647H15.2115C15.7911 27.6647 16.2709 27.5447 16.6507 27.2849C17.0305 27.025 17.3303 26.6652 17.5302 26.2055C17.7301 25.7457 17.85 25.1861 17.85 24.5464C17.85 23.9068 17.7501 23.3471 17.5302 22.8874C17.3303 22.4276 17.0305 22.0678 16.6507 21.808C16.2709 21.5481 15.7911 21.4282 15.2115 21.4282H9.31478V27.6647Z" fill="white"/>
<path d="M41.9765 32.7418C40.2175 33.3415 38.6783 33.5014 37.3391 33.2815C35.9998 33.0417 34.8205 32.442 33.7811 31.4625C32.7416 30.4831 31.8222 29.1638 30.9826 27.4648C30.1431 25.7657 29.3635 23.7669 28.604 21.4282C27.8444 19.0895 27.3447 17.0306 27.0848 15.1717C26.825 13.3127 26.825 11.6936 27.1648 10.2744C27.5046 8.85522 28.1842 7.65588 29.2836 6.65645C30.383 5.65701 31.8621 4.85746 33.7811 4.2378C34.8605 3.89799 35.9399 3.57818 37.0193 3.31832C38.0987 3.05847 39.158 2.83859 40.2174 2.69867C41.2569 2.53876 42.2563 2.41882 43.1958 2.33887L44.1353 5.23724C43.6156 5.3172 42.876 5.47711 41.9565 5.69698C41.017 5.91686 39.9976 6.15673 38.8982 6.45656C37.7788 6.75639 36.6595 7.07622 35.5201 7.43601C33.7611 7.9957 32.5218 8.77526 31.8222 9.7747C31.1226 10.7741 30.8227 12.1134 30.9627 13.7924C31.1026 15.4915 31.5823 17.6303 32.4218 20.2488C33.1015 22.3477 33.7411 24.0267 34.3807 25.346C35.0204 26.6652 35.7 27.6247 36.3996 28.2843C37.0992 28.944 37.9187 29.3037 38.8182 29.3837C39.7177 29.4637 40.7771 29.3237 41.9765 28.924C43.1758 28.5242 44.2352 28.0445 45.2946 27.4048C46.354 26.7652 47.2335 26.1655 47.9531 25.6258L45.5944 18.2699L39.3979 20.2488L38.4585 17.3505C38.9382 17.1106 39.5179 16.8507 40.1975 16.5909C40.8771 16.311 41.5967 16.0312 42.3363 15.7514C43.0958 15.4715 43.8554 15.1917 44.635 14.9518C45.3346 14.7319 45.9942 14.532 46.5939 14.3721C47.1935 14.2122 47.7333 14.0723 48.233 13.9723L53.0502 29.0039L50.2118 29.9034L49.0325 28.1644C48.3329 28.864 47.3734 29.6636 46.1541 30.583C44.9148 31.5025 43.5356 32.2221 41.9765 32.7618V32.7418Z" fill="white"/>
<path d="M47.7469 6.16839L36.3075 9.83679L37.7419 14.3098L49.1813 10.6414L47.7469 6.16839Z" fill="#52DD11"/>
<path d="M51.9508 6.5965C52.1107 6.67645 52.1706 6.85635 52.0907 7.01626L49.6721 11.7936L47.1735 4.17786L51.9508 6.5965Z" fill="#52DD11"/>
<path d="M67.0425 31.7924L71.2202 5.26727H80.7948C82.3939 5.26727 83.6932 5.48715 84.6526 5.90691C85.6121 6.34667 86.2917 6.94633 86.7115 7.72589C87.1112 8.50546 87.3311 9.42493 87.3311 10.4843C87.3311 10.8042 87.3311 11.104 87.2911 11.4038C87.2711 11.7037 87.2312 12.0035 87.1912 12.3233C86.9513 13.8425 86.3916 15.0818 85.4922 16.0412C84.6126 17.0207 83.5332 17.6403 82.2939 17.9402C82.9336 18.1001 83.5532 18.3999 84.1529 18.8397C84.7326 19.2794 85.2123 19.8391 85.5921 20.5587C85.9719 21.2783 86.1518 22.1978 86.1518 23.2972C86.1518 23.537 86.1518 23.8169 86.1518 24.1567C86.1518 24.4965 86.0718 24.9163 85.9519 25.416C85.5721 27.5748 84.6326 29.1739 83.1535 30.2133C81.6743 31.2527 79.6154 31.7724 76.9769 31.7724H67.0825L67.0425 31.7924ZM71.1402 28.5542H77.4367C78.5361 28.5542 79.4355 28.3943 80.1152 28.0545C80.7948 27.7147 81.3345 27.235 81.7143 26.5753C82.0941 25.9357 82.3939 25.1561 82.5738 24.2366C82.6138 23.9968 82.6537 23.7769 82.6537 23.557C82.6537 23.3371 82.6537 23.1572 82.6537 22.9773C82.6537 21.878 82.3139 21.0184 81.6343 20.4188C80.9547 19.8191 80.0152 19.5193 78.8159 19.5193H72.5594L71.1202 28.5542H71.1402ZM73.0191 16.6809H79.2357C80.475 16.6809 81.4544 16.3411 82.134 15.6814C82.8136 15.0218 83.2734 14.1023 83.5133 12.9829C83.5932 12.6631 83.6332 12.3833 83.6732 12.1434C83.7131 11.9035 83.7331 11.6437 83.7331 11.4038C83.7331 10.3644 83.4133 9.64482 82.7737 9.18507C82.134 8.74532 81.2145 8.52544 80.0152 8.52544H74.2984L72.9992 16.7009L73.0191 16.6809Z" fill="white"/>
<path d="M89.7897 31.7924L92.848 12.5432H95.9862L96.0862 14.9618C96.8257 14.2622 97.6653 13.6626 98.6247 13.1229C99.5842 12.5832 100.624 12.3233 101.783 12.3233C102.243 12.3233 102.662 12.3233 103.022 12.3833C103.382 12.4432 103.722 12.4832 104.022 12.5832L103.482 16.2211C103.122 16.1412 102.742 16.1012 102.323 16.0812C101.923 16.0612 101.503 16.0412 101.063 16.0412C99.944 16.0412 98.9245 16.2211 98.025 16.5809C97.1255 16.9407 96.326 17.3405 95.6264 17.8002L93.4276 31.7924H89.7897Z" fill="white"/>
<path d="M104.841 31.7924L107.86 12.5432H111.498L108.439 31.7924H104.841ZM108.879 9.30501C108.719 9.30501 108.579 9.24505 108.459 9.12511C108.359 9.00518 108.319 8.86526 108.379 8.68536L108.839 5.66705C108.919 5.22729 109.159 5.0274 109.559 5.0274H112.257C112.457 5.0274 112.577 5.08737 112.657 5.2073C112.737 5.32724 112.757 5.48715 112.737 5.66705L112.277 8.68536C112.197 9.08513 111.977 9.30501 111.598 9.30501H108.899H108.879Z" fill="white"/>
<path d="M119.833 32.0123C118.134 32.0123 116.775 31.4526 115.795 30.3332C114.796 29.2138 114.296 27.6147 114.296 25.5359C114.296 24.1966 114.436 22.8574 114.696 21.5381C115.056 19.6392 115.555 18.0201 116.195 16.6409C116.835 15.2816 117.794 14.2222 119.073 13.4627C120.353 12.7031 122.112 12.3233 124.31 12.3233C125.17 12.3233 125.969 12.3833 126.729 12.5232C127.469 12.6631 128.188 12.883 128.848 13.1828L130.247 4.32779H133.885L129.527 31.7724H126.389L126.209 29.7535C125.71 30.1333 125.11 30.4931 124.43 30.8329C123.751 31.1727 123.011 31.4526 122.232 31.6525C121.452 31.8723 120.652 31.9723 119.833 31.9723V32.0123ZM121.272 29.0539C122.312 29.0539 123.251 28.894 124.11 28.5742C124.97 28.2544 125.79 27.8746 126.549 27.4348L128.348 16.1811C127.828 15.9013 127.249 15.6814 126.629 15.5215C126.009 15.3616 125.27 15.2816 124.43 15.2816C123.151 15.2816 122.112 15.5015 121.292 15.9413C120.473 16.381 119.833 17.1006 119.333 18.1201C118.833 19.1395 118.454 20.4787 118.174 22.1778C118.074 22.6775 118.014 23.1572 117.954 23.597C117.914 24.0367 117.874 24.4565 117.874 24.8763C117.874 25.9157 118.034 26.7352 118.334 27.3349C118.654 27.9545 119.053 28.3743 119.553 28.6542C120.053 28.914 120.612 29.0539 121.252 29.0539H121.272Z" fill="white"/>
<path d="M140.921 32.0123C139.882 32.0123 138.962 31.7924 138.123 31.3527C137.283 30.9129 136.623 30.1933 136.124 29.2339C135.624 28.2544 135.384 27.0151 135.384 25.476C135.384 24.8363 135.424 24.1567 135.504 23.4571C135.584 22.7575 135.684 22.1578 135.784 21.6581C136.104 19.5393 136.643 17.8003 137.443 16.421C138.242 15.0418 139.302 14.0224 140.661 13.3428C142.02 12.6831 143.719 12.3433 145.758 12.3433C146.698 12.3433 147.637 12.4233 148.597 12.6032C149.556 12.7631 150.456 13.0229 151.275 13.3428C152.095 13.6626 152.794 14.0624 153.354 14.5421L150.616 31.8124H147.477L147.337 29.7935C146.998 30.0534 146.478 30.3732 145.778 30.713C145.079 31.0528 144.299 31.3727 143.44 31.6325C142.58 31.8924 141.76 32.0323 140.941 32.0323L140.921 32.0123ZM142.5 29.054C143.539 29.054 144.459 28.8741 145.298 28.5342C146.138 28.1944 146.918 27.8147 147.697 27.4349L149.456 16.1812C149.136 15.9813 148.657 15.7814 147.977 15.5815C147.297 15.3816 146.498 15.2817 145.558 15.2817C144.219 15.2817 143.14 15.5215 142.3 16.0213C141.461 16.521 140.821 17.2606 140.361 18.26C139.902 19.2594 139.542 20.4987 139.302 22.0179C139.202 22.6176 139.122 23.1573 139.062 23.637C139.002 24.1167 138.982 24.5165 138.982 24.8563C138.982 26.2155 139.302 27.275 139.921 27.9945C140.541 28.7141 141.401 29.0739 142.52 29.0739L142.5 29.054Z" fill="white"/>
<path d="M161.569 31.7924C159.99 31.7924 158.771 31.4326 157.931 30.713C157.092 29.9934 156.672 29.014 156.672 27.7947C156.672 27.3149 156.692 26.8552 156.752 26.4154C156.792 25.9757 156.852 25.5559 156.932 25.1761L160.25 4.34781H163.848L160.71 24.0568C160.69 24.2766 160.65 24.5365 160.61 24.8763C160.57 25.2161 160.53 25.5359 160.49 25.8757C160.45 26.2156 160.43 26.5354 160.43 26.8552C160.43 27.6148 160.61 28.1545 160.97 28.4543C161.329 28.7541 161.829 28.934 162.489 29.014L164.208 29.2339L163.768 31.8324H161.569V31.7924Z" fill="white"/>
<path d="M174.842 31.9723C173.163 31.9723 171.784 31.6524 170.724 31.0128C169.665 30.3732 168.826 29.4737 168.226 28.2743C167.626 27.075 167.206 25.6758 166.967 24.0167C166.727 22.3577 166.607 20.5187 166.607 18.4798C166.607 16.441 166.747 14.4421 167.027 12.763C167.306 11.084 167.786 9.66477 168.506 8.50542C169.225 7.34607 170.205 6.44658 171.484 5.84691C172.763 5.22726 174.422 4.92743 176.421 4.92743C177.641 4.92743 178.76 4.96741 179.779 5.06735C180.799 5.16729 181.758 5.30721 182.678 5.48711C183.597 5.66701 184.497 5.8869 185.416 6.12676V10.2245C184.917 10.1445 184.237 10.0845 183.397 10.0046C182.558 9.92463 181.618 9.86467 180.599 9.8047C179.56 9.74473 178.5 9.72474 177.401 9.72474C175.882 9.72474 174.742 9.98459 173.963 10.5243C173.183 11.064 172.643 11.9835 172.364 13.2628C172.084 14.542 171.924 16.3011 171.924 18.5398C171.924 20.2588 172.004 21.678 172.164 22.7774C172.324 23.8768 172.583 24.7563 172.943 25.376C173.303 26.0156 173.783 26.4554 174.362 26.7152C174.942 26.9751 175.682 27.095 176.541 27.095C177.521 27.095 178.46 27.015 179.36 26.8351C180.259 26.6752 180.979 26.4953 181.538 26.3354V21.1583H176.761V16.9407C177.261 16.8607 177.86 16.8008 178.56 16.7608C179.26 16.7208 179.979 16.6808 180.739 16.6409C181.498 16.6009 182.218 16.5809 182.918 16.5809C183.677 16.5809 184.377 16.5809 184.996 16.5809C185.616 16.5809 186.156 16.6209 186.676 16.6808V31.7924H182.678L181.958 29.9934C181.259 30.3931 180.279 30.8329 179 31.2926C177.721 31.7524 176.341 31.9723 174.862 31.9723H174.842Z" fill="white"/>
<path d="M191.593 31.7924V12.4633H195.691L196.91 15.4216C197.609 14.5421 198.389 13.7825 199.268 13.1629C200.148 12.5432 201.187 12.2234 202.387 12.2234C202.647 12.2234 202.926 12.2234 203.206 12.2634C203.486 12.2834 203.746 12.3433 203.986 12.4033V17.8802C203.626 17.8402 203.246 17.8003 202.846 17.7603C202.447 17.7203 202.067 17.7003 201.707 17.7003C201.007 17.7003 200.388 17.7803 199.808 17.9402C199.249 18.1001 198.729 18.32 198.269 18.6198C197.809 18.9196 197.35 19.2994 196.93 19.7791V31.7924H191.613H191.593Z" fill="white"/>
<path d="M215.979 31.9723C214.4 31.9723 213.041 31.8124 211.921 31.4926C210.802 31.1727 209.882 30.633 209.163 29.8535C208.443 29.0739 207.943 28.0745 207.624 26.7952C207.304 25.5159 207.144 23.9568 207.144 22.0778C207.144 20.1189 207.304 18.4798 207.624 17.2006C207.943 15.9213 208.463 14.9019 209.163 14.1823C209.862 13.4627 210.802 12.943 211.941 12.6431C213.081 12.3433 214.44 12.2034 215.999 12.2034C217.558 12.2034 218.977 12.3633 220.097 12.6631C221.216 12.9829 222.135 13.5026 222.855 14.2222C223.555 14.9618 224.074 15.9613 224.394 17.2405C224.714 18.5198 224.874 20.1389 224.874 22.0778C224.874 24.0167 224.714 25.5959 224.414 26.8751C224.094 28.1544 223.595 29.1739 222.895 29.9134C222.195 30.653 221.276 31.1927 220.137 31.4926C218.997 31.8124 217.618 31.9523 215.979 31.9523V31.9723ZM215.979 27.7347C216.619 27.7347 217.178 27.6747 217.618 27.5548C218.058 27.4348 218.417 27.195 218.697 26.8152C218.977 26.4354 219.177 25.8757 219.317 25.1161C219.457 24.3566 219.537 23.3371 219.537 22.0978C219.537 20.8585 219.457 19.8191 219.317 19.0595C219.177 18.3 218.957 17.7403 218.697 17.3605C218.417 16.9807 218.058 16.7408 217.618 16.6209C217.178 16.501 216.619 16.441 215.979 16.441C215.339 16.441 214.82 16.501 214.38 16.6209C213.94 16.7408 213.56 16.9807 213.28 17.3605C213.001 17.7403 212.781 18.3 212.641 19.0595C212.501 19.8191 212.441 20.8185 212.441 22.0978C212.441 23.3771 212.501 24.3566 212.641 25.1161C212.781 25.8757 212.981 26.4554 213.28 26.8152C213.56 27.195 213.94 27.4348 214.38 27.5548C214.82 27.6747 215.359 27.7347 215.979 27.7347Z" fill="white"/>
<path d="M232.27 31.7924L227.153 12.4633H232.65L235.708 26.8552L239.526 12.4633H243.923L247.741 26.8552L250.519 12.4633H256.016L250.979 31.7924H245.083L241.624 20.019L238.066 31.7924H232.27Z" fill="white"/>
<path d="M267.53 31.7924C266.051 31.7924 264.832 31.5725 263.912 31.1527C262.993 30.733 262.333 29.9934 261.913 28.994C261.494 27.9945 261.334 26.6353 261.374 24.9362L261.553 16.7608H258.535V13.3427L261.733 12.4832L262.453 7.08624H266.671V12.4832H271.208V16.7608H266.671V24.8962C266.671 25.416 266.711 25.8557 266.81 26.1955C266.91 26.5353 267.05 26.7952 267.23 26.9951C267.41 27.195 267.63 27.3549 267.87 27.4548C268.11 27.5548 268.35 27.6147 268.59 27.6347L271.028 27.8546V31.8124H267.53V31.7924Z" fill="white"/>
<path d="M274.986 31.7924V4.36774H280.303V14.4421C281.003 13.8624 281.902 13.3427 283.021 12.863C284.141 12.3832 285.28 12.1434 286.46 12.1434C287.919 12.1434 289.078 12.4232 289.958 13.0029C290.817 13.5826 291.437 14.3821 291.837 15.4215C292.216 16.461 292.416 17.6603 292.416 19.0195V31.7924H287.099V19.6991C287.099 19.0795 286.979 18.5598 286.739 18.16C286.5 17.7602 286.18 17.4404 285.76 17.2405C285.36 17.0406 284.88 16.9407 284.321 16.9407C283.821 16.9407 283.321 17.0007 282.862 17.1406C282.402 17.2805 281.942 17.4404 281.522 17.6603C281.103 17.8802 280.703 18.12 280.323 18.3799V31.7924H275.006H274.986Z" fill="white"/>
</svg>
